<?xml version="1.0" encoding="utf-8"?>
<!-- Generator: Adobe Illustrator 26.1.0, SVG Export Plug-In . SVG Version: 6.00 Build 0)  -->
<svg version="1.1" id="Layer_1" xmlns="http://www.w3.org/2000/svg" xmlns:xlink="http://www.w3.org/1999/xlink" x="0px" y="0px"
	 viewBox="0 0 2762 890" style="enable-background:new 0 0 2762 890;" xml:space="preserve">
<style type="text/css">
	.st0{fill:#FFFFFF;}
	.st1{fill:url(#body_00000139274173332857839400000010820711691900081311_);}
	.st2{fill:url(#SVGID_1_);}
	.st3{fill:#FF9C00;}
	.st4{fill:#FF009E;}
	.st5{fill:#4D1C00;}
	.st6{opacity:0.82;fill:url(#shadow_00000008861194392999425230000004044621031337849512_);enable-background:new    ;}
</style>
<g>
	<g>
		<g>
			<g>
				<path class="st0" d="M2526.4,457.7c-5.8-19.3-14.8-37.6-27.5-53.3c-1.8-2.3-3.7-4.5-5.7-6.6c-28.6-31.3-71.5-47.7-113.6-46.7
					c-26.3,0.6-52.5,8.7-75.7,20.8c-27.6,14.5-49.1,34.9-64.5,61.1c-15.4,26.3-23.1,56.8-23.1,91.5c0,45.1,11.3,80.1,34,104.9
					c22.7,24.8,52.9,37.2,90.8,37.2c24.1,0,44.6-3.3,61.5-9.9c9.6-3.8,18.5-8.8,26.4-15.1l0,0l0.2,0.5c2.2,7.6,4,15.9,5.4,24.6h13
					h28.9h43.3c1.6-5.8,2.9-11.6,4.1-17.4c7.9-40.1,10.5-81,10.6-121.7C2534.7,503.8,2533.4,480.8,2526.4,457.7z M2375.6,586.8
					c-33.3,0-60.3-35-60.3-78.1s27-78.1,60.3-78.1s60.3,35,60.3,78.1S2408.9,586.8,2375.6,586.8z"/>
				<path class="st0" d="M1820.8,389.8c-26.4-27-65.1-40.5-116.2-40.5c-51.9,0-91.8,13.9-119.8,41.7
					c-27.9,27.8-41.9,68.3-41.9,121.4c0,34,7.4,62.6,22.3,85.6s35.1,40.3,60.6,51.7c25.6,11.4,54.4,17.1,86.5,17.1
					c25.8,0,48.5-2.5,68.4-7.5c19.8-5,37.6-12.8,53.4-23.6c0.1,0,0.1-0.1,0.2-0.1c4.3-3.3,6.4-6.6,6.4-9.9c0-2.1-0.8-4.6-2.4-7.5
					c-12-23.1-38.3-38.2-62-29.2c-16,6.1-33.4,7.7-50.4,7.7c-22.6,0-47.2-1.3-67.7-11.8c-7.8-4-14.2-10.1-18.3-17.9
					c-4.9-9.3-5.7-20.3-4.8-30.6c0.1-1.7,0.3-3.3,0.5-5c0.3-2.1,1.1-4.8,4-3.9c7.4,2.3,14.9,3.9,22.4,5.4c21.1,3.8,42.5,5.6,63.9,6
					c22.6,0.4,45.2-0.9,67.6-4.2c12.6-1.9,25.1-4.3,37.4-7.6c5.5-1.5,11.1-2.8,16.2-5.4c7.5-3.8,13-11.6,13-20.1v-5.5
					C1858.7,450.6,1845.5,415.1,1820.8,389.8z M1673.4,482.1c-16,0-28.9-16.9-28.9-37.7c0-20.8,13-37.7,28.9-37.7
					c16,0,28.9,16.9,28.9,37.7S1689.4,482.1,1673.4,482.1z"/>
				<path class="st0" d="M1463.8,389.8c-26.4-27-65.1-40.5-116.2-40.5c-51.9,0-91.8,13.9-119.8,41.7
					c-27.9,27.8-41.9,68.3-41.9,121.4c0,34,7.4,62.6,22.3,85.6s35.1,40.3,60.6,51.7c25.6,11.4,54.4,17.1,86.5,17.1
					c25.8,0,48.5-2.5,68.4-7.5c19.8-5,37.6-12.8,53.4-23.6c0.1,0,0.1-0.1,0.2-0.1c4.3-3.3,6.4-6.6,6.4-9.9c0-2.1-0.8-4.6-2.4-7.5
					c-12-23.1-38.3-38.2-62-29.2c-16,6.1-33.4,7.7-50.4,7.7c-22.6,0-47.2-1.3-67.7-11.8c-7.8-4-14.2-10.1-18.3-17.9
					c-4.9-9.3-5.7-20.3-4.8-30.6c0.1-1.7,0.3-3.3,0.5-5c0.3-2.1,1.1-4.8,4-3.9c7.4,2.3,14.9,3.9,22.4,5.4c21.1,3.8,42.5,5.6,63.9,6
					c22.6,0.4,45.2-0.9,67.6-4.2c12.6-1.9,25.1-4.3,37.4-7.6c5.5-1.5,11.1-2.8,16.2-5.4c7.5-3.8,13-11.6,13-20.1v-5.5
					C1501.7,450.6,1488.5,415.1,1463.8,389.8z M1316.4,482.1c-16,0-28.9-16.9-28.9-37.7c0-20.8,13-37.7,28.9-37.7
					s28.9,16.9,28.9,37.7S1332.4,482.1,1316.4,482.1z"/>
				<path class="st0" d="M1191,243.2h-80.5c-5.5,0-10.2,3.8-11.5,9.2c-1.2,5.4-2.6,10.8-4,16.2c-22.6,87.8-51.6,173.9-87.1,257.3
					c-1.1,2.5-3.3,3.7-5.6,3.7v0.1l0,0v-0.1c-2.2,0-4.5-1.3-5.6-3.7c-35.6-83.3-64.6-169.5-87.1-257.3c-1.4-5.4-2.7-10.8-4-16.2
					c-1.2-5.4-6-9.2-11.5-9.2h-80.5c-7.5,0-13.1,6.9-11.5,14.2c14.4,69,36.3,136.3,59.8,202.7c17.3,48.7,36.7,96.6,58.4,143.5
					c5.6,12.2,23.7,48.5,26.8,54.6c2.5,4.8,5.7,8.7,11.5,8.7h4.5h39l0,0h0.1l0,0h39h4.5c5.9,0,9.1-3.9,11.5-8.7
					c3.1-6.1,21.2-42.4,26.8-54.6c21.6-46.9,41.1-94.8,58.4-143.5c23.5-66.3,45.4-133.6,59.8-202.7
					C1204,250.1,1198.4,243.2,1191,243.2z"/>
				<path class="st0" d="M2158,583.7c-22.9-26.3-46.5-52-72.4-75.4l-0.2-0.2l0.2-0.2c25.9-23.5,49.5-49.2,72.4-75.4
					c17.8-20.7,35.2-41.6,51.2-63.7c5.7-7.8,0.1-18.7-9.5-18.7h-77.4c-3.9,0-7.6,2-9.8,5.2c-14.3,21.7-30.6,42.6-47.4,62.2
					c-15.3,17.5-32.1,35.6-49.5,51.7c-1,1-2.4,1.6-4,1.6c-2,0-3.8-1-4.9-2.7c-1.2-1.9-1-4.3-0.9-6.4c0.1-2.2,0-4.5,0-6.8
					c0.3-66.2,2.6-132.8,12.6-198.5c1-7.1-4.5-13.4-11.6-13.4h-78.4c-5.7,0-10.6,4.1-11.6,9.7c-0.1,0.4-0.1,0.8-0.2,1.1
					c-0.6,3.6-1.1,7.3-1.6,10.9c0,0.3-0.1,0.7-0.1,1c-8.7,62.6-10.9,126-11.2,189.1c0.4,63.1,2.5,126.5,11.2,189.1
					c0,0.3,0.1,0.7,0.1,1c0.5,3.6,1,7.3,1.6,10.9c0.1,0.4,0.1,0.8,0.2,1.1c1,5.6,5.9,9.7,11.6,9.7h78.4c7.2,0,12.6-6.3,11.6-13.4
					c-5-32.9-8-66-9.9-99.2c-0.3-5.3,6-8.3,9.9-4.6c16.5,15.4,31.8,32,46.7,49c16.8,19.6,33.1,40.5,47.4,62.2
					c2.2,3.3,5.9,5.2,9.8,5.2h77.4c9.6,0,15.2-10.9,9.5-18.7C2193.1,625.4,2175.8,604.4,2158,583.7z"/>
			</g>
			<g>
				
					<linearGradient id="body_00000094602127421147288000000011051261779988070590_" gradientUnits="userSpaceOnUse" x1="457.45" y1="324" x2="457.45" y2="878.5" gradientTransform="matrix(1 0 0 1 0 -188)">
					<stop  offset="0" style="stop-color:#FF9B52"/>
					<stop  offset="0.9984" style="stop-color:#FF0DB5"/>
				</linearGradient>
				
					<path id="body_00000066517801326133038920000013807024006159061417_" style="fill:url(#body_00000094602127421147288000000011051261779988070590_);" d="
					M700.3,459.1c0-109-76.7-200-179.1-222.1c-14.1-3-27.6-8.5-39.9-16.1L344.1,136c-15.9,25.7-12.8,59.4,4.9,91.7l-37.3-12.9
					c-7.2,20.8,2.6,44.8,23.3,63.8c-54.2,41.5-89.1,106.9-89.1,180.5c0,17.2,1.9,34,5.5,50.1l-36.8-12
					c16,115.8,93,193.2,242.6,193.3c37.4,0,72.9-7.8,104.7-21.8l-0.1-0.3C643.1,633.8,700.3,553.1,700.3,459.1z"/>
				<g id="beak_00000125581900235858266500000015910302096991858844_">
					
						<linearGradient id="SVGID_1_" gradientUnits="userSpaceOnUse" x1="3858.7913" y1="281.5745" x2="3880.3503" y2="426.2275" gradientTransform="matrix(-0.9891 0.1474 0.1474 0.9891 4248.2432 -502.8174)">
						<stop  offset="0" style="stop-color:#F6E846"/>
						<stop  offset="1.047115e-02" style="stop-color:#F6E845"/>
						<stop  offset="0.2689" style="stop-color:#FAE227"/>
						<stop  offset="0.5231" style="stop-color:#FDDD11"/>
						<stop  offset="0.7694" style="stop-color:#FEDB04"/>
						<stop  offset="0.9984" style="stop-color:#FFDA00"/>
					</linearGradient>
					<path class="st2" d="M411.4,445c-10.4-34-2.6-80.6,27.4-95.6c33.9-17,83.2,12.8,100.2,46.6l-69.2,34.8l59.8,1.8
						c-1,33.1-28.6,59.1-61.7,58.1C440.3,489.9,417.6,470.6,411.4,445z"/>
					
						<ellipse transform="matrix(0.4349 -0.9005 0.9005 0.4349 -98.9442 597.1811)" class="st3" cx="426.3" cy="377.4" rx="10.9" ry="6.1"/>
				</g>
				<g id="blush_00000162341183644076669870000001496572021778499230_">
					<ellipse class="st4" cx="306.6" cy="483.8" rx="46.5" ry="28.3"/>
					<ellipse class="st4" cx="639.4" cy="483.8" rx="46.5" ry="28.3"/>
				</g>
				<g id="eyes_00000132049110591208127790000013486015219397371016_">
					<g>
						<circle class="st5" cx="305.3" cy="382" r="53.9"/>
						<path class="st0" d="M305.3,320.4c-34,0-61.7,27.7-61.7,61.7s27.7,61.7,61.7,61.7s61.7-27.7,61.7-61.7
							C366.9,348,339.3,320.4,305.3,320.4z M305.3,428.1c-25.5,0-46.1-20.6-46.1-46.1s20.6-46.1,46.1-46.1c3,0,5.9,0.3,8.7,0.8
							c-6.5,4.5-10.8,12-10.8,20.5c0,13.7,11.1,24.9,24.9,24.9c9.2,0,17.3-5,21.6-12.5c1.1,3.9,1.7,8.1,1.7,12.3
							C351.4,407.5,330.7,428.1,305.3,428.1z"/>
					</g>
					<g>
						<circle class="st5" cx="640.8" cy="382" r="53.9"/>
						<path class="st0" d="M640.8,320.4c-34,0-61.7,27.7-61.7,61.7s27.7,61.7,61.7,61.7s61.7-27.7,61.7-61.7
							C702.5,348,674.8,320.4,640.8,320.4z M640.8,428.1c-25.5,0-46.1-20.6-46.1-46.1s20.6-46.1,46.1-46.1c3,0,5.9,0.3,8.7,0.8
							c-6.5,4.5-10.8,12-10.8,20.5c0,13.7,11.1,24.9,24.9,24.9c9.2,0,17.3-5,21.6-12.5c1.1,3.9,1.7,8.1,1.7,12.3
							C686.9,407.5,666.2,428.1,640.8,428.1z"/>
					</g>
				</g>
				
					<radialGradient id="shadow_00000114074095949497276930000017317722002531213954_" cx="458" cy="-25.8199" r="239.814" gradientTransform="matrix(1 0 0 0.137 0 704.1373)" gradientUnits="userSpaceOnUse">
					<stop  offset="0" style="stop-color:#000000;stop-opacity:0.7"/>
					<stop  offset="0.2874" style="stop-color:#000000;stop-opacity:0.3"/>
					<stop  offset="0.397" style="stop-color:#282828;stop-opacity:0.2538"/>
					<stop  offset="1" style="stop-color:#FFFFFF;stop-opacity:0"/>
				</radialGradient>
				
					<ellipse id="shadow_00000068679682601733946950000012538591023387345310_" style="opacity:0.82;fill:url(#shadow_00000114074095949497276930000017317722002531213954_);enable-background:new    ;" cx="458" cy="700.6" rx="250.6" ry="33.4"/>
			</g>
		</g>
	</g>
</g>
</svg>
